<?xml version="1.0" encoding="utf-8"?>
<!-- Generator: Adobe Illustrator 16.0.0, SVG Export Plug-In . SVG Version: 6.00 Build 0)  -->
<!DOCTYPE svg PUBLIC "-//W3C//DTD SVG 1.1//EN" "http://www.w3.org/Graphics/SVG/1.1/DTD/svg11.dtd">
<svg version="1.1" id="Layer_2" xmlns="http://www.w3.org/2000/svg" xmlns:xlink="http://www.w3.org/1999/xlink" x="0px" y="0px"
	 width="1400px" height="980px" viewBox="0 0 1400 980" enable-background="new 0 0 1400 980" xml:space="preserve">
<pattern  width="28.8" height="28.801" patternUnits="userSpaceOnUse" id="_x31_0_dpi_20_x25_" viewBox="1.44 -30.24 28.8 28.801" overflow="visible">
	<g>
		<polygon fill="none" points="1.44,-30.24 30.24,-30.24 30.24,-1.439 1.44,-1.439 		"/>
		<g>
			<path fill="#231F20" d="M30.24,0c0.795,0,1.439-0.645,1.439-1.439s-0.645-1.439-1.439-1.439c-0.796,0-1.44,0.645-1.44,1.439
				S29.444,0,30.24,0z"/>
			<path fill="#231F20" d="M15.84,0c0.795,0,1.44-0.645,1.44-1.439s-0.646-1.439-1.44-1.439c-0.796,0-1.439,0.645-1.439,1.439
				S15.044,0,15.84,0z"/>
			<path fill="#231F20" d="M30.24-14.398c0.795,0,1.439-0.646,1.439-1.441s-0.645-1.439-1.439-1.439c-0.796,0-1.44,0.645-1.44,1.439
				S29.444-14.398,30.24-14.398z"/>
			<path fill="#231F20" d="M15.84-14.398c0.795,0,1.44-0.646,1.44-1.441s-0.646-1.439-1.44-1.439c-0.796,0-1.439,0.645-1.439,1.439
				S15.044-14.398,15.84-14.398z"/>
			<path fill="#231F20" d="M8.64-7.199c0.795,0,1.44-0.645,1.44-1.439c0-0.797-0.646-1.441-1.44-1.441
				C7.844-10.08,7.2-9.436,7.2-8.639C7.2-7.844,7.844-7.199,8.64-7.199z"/>
			<path fill="#231F20" d="M23.04-7.199c0.795,0,1.44-0.645,1.44-1.439c0-0.797-0.646-1.441-1.44-1.441
				c-0.796,0-1.44,0.645-1.44,1.441C21.6-7.844,22.244-7.199,23.04-7.199z"/>
			<path fill="#231F20" d="M8.64-21.6c0.795,0,1.44-0.645,1.44-1.439c0-0.797-0.646-1.441-1.44-1.441
				c-0.796,0-1.439,0.645-1.439,1.441C7.2-22.244,7.844-21.6,8.64-21.6z"/>
			<path fill="#231F20" d="M23.04-21.6c0.795,0,1.44-0.645,1.44-1.439c0-0.797-0.646-1.441-1.44-1.441
				c-0.796,0-1.44,0.645-1.44,1.441C21.6-22.244,22.244-21.6,23.04-21.6z"/>
		</g>
		<g>
			<path fill="#231F20" d="M1.44,0C2.235,0,2.88-0.645,2.88-1.439S2.235-2.879,1.44-2.879C0.645-2.879,0-2.234,0-1.439
				S0.645,0,1.44,0z"/>
			<path fill="#231F20" d="M1.44-14.398c0.795,0,1.439-0.646,1.439-1.441s-0.645-1.439-1.439-1.439C0.645-17.279,0-16.635,0-15.84
				S0.645-14.398,1.44-14.398z"/>
		</g>
		<g>
			<path fill="#231F20" d="M30.24-28.801c0.795,0,1.439-0.645,1.439-1.439s-0.645-1.439-1.439-1.439c-0.796,0-1.44,0.645-1.44,1.439
				S29.444-28.801,30.24-28.801z"/>
			<path fill="#231F20" d="M15.84-28.801c0.795,0,1.44-0.645,1.44-1.439s-0.646-1.439-1.44-1.439c-0.796,0-1.439,0.645-1.439,1.439
				S15.044-28.801,15.84-28.801z"/>
		</g>
		<g>
			<path fill="#231F20" d="M1.44-28.801c0.795,0,1.439-0.645,1.439-1.439S2.235-31.68,1.44-31.68C0.645-31.68,0-31.035,0-30.24
				S0.645-28.801,1.44-28.801z"/>
		</g>
	</g>
</pattern>
<rect fill="#061728" width="1400" height="980"/>
<g>
	<g>
		<g>
			<path fill="#054244" d="M1222.997,113H673.73c-2.268,0-4.106-1.732-4.106-4s1.838-4,4.106-4h549.267c2.268,0,4.105,1.732,4.105,4
				S1225.265,113,1222.997,113z"/>
		</g>
		<g>
			<path fill="#064345" d="M1222.997,309h-164.232c-11.842,0-21.441-9.658-21.441-21.5s9.6-21.5,21.441-21.5h164.232
				c11.842,0,21.441,9.658,21.441,21.5S1234.839,309,1222.997,309z"/>
		</g>
		<g>
			<path fill="#0F7A66" d="M1140.881,474H640.884c-4.031,0-7.299-3.469-7.299-7.5s3.268-7.5,7.299-7.5h499.997
				c4.031,0,7.299,3.469,7.299,7.5S1144.912,474,1140.881,474z"/>
		</g>
		<g>
			<path fill="#064345" d="M1045.99,664H223.003c-11.842,0-21.441-9.658-21.441-21.5s9.6-21.5,21.441-21.5h822.987
				c11.842,0,21.442,9.658,21.442,21.5S1057.832,664,1045.99,664z"/>
		</g>
		<g>
			<path fill="#0F7A66" d="M1261.318,569h-155.109c-4.03,0-7.299-3.469-7.299-7.5s3.269-7.5,7.299-7.5h155.109
				c4.03,0,7.299,3.469,7.299,7.5S1265.349,569,1261.318,569z"/>
		</g>
		<g>
			<path fill="#0D6B59" d="M978.473,398H872.634c-7.306,0-13.229-5.693-13.229-13s5.924-13,13.229-13h105.839
				c7.307,0,13.23,5.693,13.23,13S985.779,398,978.473,398z"/>
		</g>
		<g>
			<path fill="#0F7A66" d="M497.636,223H243.076c-4.031,0-7.299-3.468-7.299-7.5c0-4.031,3.268-7.5,7.299-7.5h254.561
				c4.032,0,7.299,3.469,7.299,7.5C504.936,219.532,501.668,223,497.636,223z"/>
		</g>
		<g>
			<path fill="#0F7A66" d="M1201.1,164H938.327c-4.031,0-7.299-3.468-7.299-7.5c0-4.031,3.268-7.5,7.299-7.5H1201.1
				c4.031,0,7.299,3.469,7.299,7.5C1208.398,160.532,1205.131,164,1201.1,164z"/>
		</g>
		<g>
			<path fill="#0F7A66" d="M1140.881,718h-124.087c-4.031,0-7.3-3.469-7.3-7.5s3.269-7.5,7.3-7.5h124.087
				c4.031,0,7.299,3.469,7.299,7.5S1144.912,718,1140.881,718z"/>
		</g>
		<g>
			<path fill="#B95A0A" d="M967.794,820h-38.321c-7.306,0-13.229-5.693-13.229-13s5.924-13,13.229-13h38.321
				c7.307,0,13.229,5.693,13.229,13S975.101,820,967.794,820z"/>
		</g>
		<g>
			<path fill="#0F7A66" d="M925.554,245h-44.708c-4.031,0-7.299-3.469-7.299-7.5c0-4.032,3.268-7.5,7.299-7.5h44.708
				c4.031,0,7.299,3.468,7.299,7.5C932.853,241.531,929.585,245,925.554,245z"/>
		</g>
		<g>
			<path fill="#0F7A66" d="M255.85,718h-71.167c-4.032,0-7.299-3.469-7.299-7.5s3.268-7.5,7.299-7.5h71.167
				c4.031,0,7.299,3.469,7.299,7.5S259.881,718,255.85,718z"/>
		</g>
		<g>
			<path fill="#064345" d="M589.789,153h-78.467c-5.039,0-9.124-4.461-9.124-9.5s4.085-9.5,9.124-9.5h78.467
				c5.039,0,9.124,4.461,9.124,9.5S594.828,153,589.789,153z"/>
		</g>
	</g>
	<circle fill="#B95A0A" cx="1019.759" cy="352.049" r="10.265"/>
	<circle fill="#B95A0A" cx="1235.771" cy="157.741" r="8.668"/>
	<circle fill="#064345" cx="1244.881" cy="759.913" r="17.778"/>
	<circle fill="#064345" cx="244.907" cy="300.39" r="18.242"/>
	<line fill="none" stroke="#E2E0D3" stroke-width="2" stroke-miterlimit="10" x1="1099" y1="358" x2="1168" y2="358"/>
	<line fill="none" stroke="#E2E0D3" stroke-width="2" stroke-miterlimit="10" x1="110" y1="66" x2="364" y2="66"/>
	<line fill="none" stroke="#E2E0D3" stroke-width="2" stroke-miterlimit="10" x1="397" y1="90" x2="453" y2="90"/>
</g>
<g>
	<path fill="#02665C" d="M656.08,980H217.62c0,0,21-77.43,125.99-153.93l155.55,23.84l152.17,23.33l3.51,78.91L656.08,980z"/>
	<polygon fill="#061728" points="654.84,952.15 446.21,927.39 499.16,849.91 651.33,873.24 	"/>
	<path fill="#CDCCB6" d="M266,980c0,0,38-85.061,124-134.03l12.511,20.29c0,0-70.103,60.74-89.307,113.74H266z"/>
	<path fill="none" stroke="#061728" stroke-width="2" stroke-miterlimit="10" d="M279.112,980c0,0,31.245-71.429,90.619-107.428"/>
	<path fill="none" stroke="#061728" stroke-width="2" stroke-miterlimit="10" d="M292.733,980c0,0,29.623-61.19,76.998-94.809"/>
	<path fill="#CBC9B3" d="M446.21,502.65c0,0-24.4,67.6-79.72,105.71c-18.31,12.609-56.27,31.279-99.72,47.1
		c-87.83,31.96-198.08,52.271-213.7-12.69c-23.36-97.1,167.16-165.93,194.2-187.319c27.04-21.4,65.14-62.3,65.14-62.3l44.21,36.18
		L446.21,502.65z"/>
	<pattern  id="SVGID_1_" xlink:href="#_x31_0_dpi_20_x25_" patternTransform="matrix(1 0 0 1 23 0)">
	</pattern>
	<path fill="url(#SVGID_1_)" d="M446.21,502.65c0,0-24.4,67.6-79.72,105.71c-18.31,12.609-56.27,31.279-99.72,47.1l89.85-226.13
		L446.21,502.65z"/>
	<path fill="#86BD93" d="M780.09,647.58c-15,28.5-55.5,222.56-217.49,277.49c0,0-193.49,46.5-218.99-99
		c0,0,24.47-70.58,30.17-134.96c1.5-16.9,1.7-33.37-0.17-48.03c-1.01-7.9-1.62-15.79-1.94-23.65
		c-2.53-62.22,13.42-121.54-2.56-154.84c-18-37.5-58.5-68.99,9-107.99c67.49-39,148.49,1.5,251.99,46.49
		c70.9,30.83,211.48,43.5,233.98,78S795.09,619.08,780.09,647.58z"/>
	<g>
		<path fill="#B26106" d="M496.286,827.163c-14.917-5.414-26.805-14.854-35.332-28.06c-8.818-13.259-11.947-29.427-9.498-47.472
			l1.584-11.223l45.582,15.812l0.125,6.465c0.337,9.215,4.458,14.873,13.693,18.089c16.599,5.545,23.193-4.297,27.308-16.16
			l2.735-7.887c-10.27-0.905-20.237-3.02-29.072-6.084c-0.488-0.169-0.921-0.323-1.404-0.499c-0.253-0.084-0.48-0.16-0.729-0.247
			c-14.898-5.168-25.875-15.129-32.648-29.614c-6.981-14.444-7.283-33.102,1.268-54.703l6.515-18.78
			c7.405-21.349,20.276-35.671,37.682-42.866c16.365-7.231,33.335-7.889,50.438-1.957c17.598,6.104,31.109,17.377,39.473,33.269
			c8.586,16.166,9.23,35.148,2.811,56.707l-31.443,90.649c-8.278,20.812-20.523,35.271-37.306,42.659
			c-16.338,7.266-33.752,7.917-51.384,2.04l-0.201-0.067L496.286,827.163z M525.344,681.034
			c-6.912,19.927,1.532,26.097,11.344,29.632c16.629,5.534,23.303-4.408,27.405-16.234l5.729-16.517
			c6.841-19.725-1.724-26.071-11.464-29.717c-16.781-5.351-23.208,4.562-27.258,16.239L525.344,681.034z"/>
		<path fill="#D6D4C5" d="M494.946,649.76c6.731-18.824,17.631-31.329,32.698-37.522c14.305-6.349,28.949-6.927,43.932-1.73
			c15.433,5.354,26.799,14.961,34.096,28.822c7.445,14.019,8.064,30.549,1.869,49.59l-31.33,90.32
			c-6.894,18.694-17.601,31.244-32.127,37.638c-14.314,6.367-29.222,6.964-44.719,1.8c-13.103-4.756-23.39-12.931-30.861-24.525
			c-7.626-11.441-10.361-25.112-8.203-41.014l29.322,10.172c0.476,13.015,7.126,21.74,19.949,26.188
			c18.158,6.092,31.112-1.157,38.864-21.741l6.692-19.293c-15.072-0.295-28.442-2.574-40.104-6.83
			c-12.976-4.29-22.384-12.697-28.226-25.224c-5.943-12.247-5.409-28.175,1.605-47.789L494.946,649.76z M516.85,678.174
			c-6.832,20.866-1.161,34.556,17.009,41.066c18.205,6.107,31.179-1.115,38.922-21.666l5.81-16.75
			c6.58-20.74,0.865-34.443-17.145-41.114c-18.366-5.946-31.295,1.289-38.786,21.713L516.85,678.174z"/>
	</g>
	<path fill="#061728" d="M373.78,691.11c1.5-16.9,1.7-33.37-0.17-48.03c-1.01-7.9-1.62-15.79-1.94-23.65
		c18.4-30.87,41.25-50.12,41.25-50.12l63.52,58.771L373.78,691.11z"/>
	<path fill="#A4D7B2" d="M732.129,613.066C732.129,613.066,838,596,876,607s47-25,48-63s-34.109-80.677-106.055-88.838
		S732.129,613.066,732.129,613.066z"/>
	<path fill="#B26106" d="M310.765,389.27c0,0-50.966,56.313,56.235,104.39l4.167-24.792L310.765,389.27z"/>
	<path fill="#054244" d="M317.765,375.27c0,0-50.966,56.313,56.235,104.391l4.167-24.792L317.765,375.27z"/>
	<path fill="#A4D7B2" d="M510.893,356.325c0,0-51.467-56.219-135.893-24.325c-90,34-71,97-11.053,122.869
		C435.188,485.61,510.893,356.325,510.893,356.325z"/>
	<path fill="#061728" d="M292.733,466.558c0,0,34.658-9.827,43.769-16.794c9.111-6.967,42.876-32.692,51.451-36.98
		s32.157-8.575,39.66-12.327c7.503-3.752,16.614,0,27.869,0c11.255,0,25.489-5.201,25.489-5.201s27.876,4.192,31.207,11.396
		c3.331,7.204-69.021,63.479-73.31,67.23c-4.288,3.751-73.505,30.558-89.472,29.487c-15.966-1.073-27.728,15.813-27.728,15.813
		L292.733,466.558z"/>
	<g>
		<path fill="#B26106" d="M374.44,651.537c13.56,6.13,82.226,12.997,140.893-76.537s1.786-160.667-4.44-164.667S413.333,405,368,490
			S374.44,651.537,374.44,651.537z"/>
		<pattern  id="SVGID_2_" xlink:href="#_x31_0_dpi_20_x25_" patternTransform="matrix(1 0 0 1 23 0)">
		</pattern>
		<path fill="url(#SVGID_2_)" d="M515.33,575c-39.67,60.53-83.91,77-112.59,79.42c95.62-95.53,110.66-192.69,111.36-240.93
			C527.33,428.72,568.14,494.41,515.33,575z"/>
		<path fill="none" stroke="#061728" stroke-width="2" stroke-miterlimit="10" d="M374.44,651.537
			c96.826-105.541,136.453-241.204,136.453-241.204s-84.036-8.91-125.942,102.464C346,616.315,374.44,651.537,374.44,651.537z"/>
		<path fill="none" stroke="#E2E0D3" stroke-width="10" stroke-linecap="round" stroke-miterlimit="10" d="M424.055,462.632
			c0,0-26.629,30.856-37.675,70.945"/>
		<path fill="none" stroke="#E2E0D3" stroke-width="10" stroke-linecap="round" stroke-miterlimit="10" d="M378.167,519.183
			c0,0,18.188,2.853,24.344,11.668"/>
		<path fill="none" stroke="#E2E0D3" stroke-width="10" stroke-linecap="round" stroke-miterlimit="10" d="M384.951,498.104
			c0,0,17.207,4.491,24.461,14.693"/>
		<path fill="none" stroke="#E2E0D3" stroke-width="10" stroke-linecap="round" stroke-miterlimit="10" d="M390.339,479.825
			c0,0,20.328,8.718,25.661,18.28"/>
		<path fill="none" stroke="#E2E0D3" stroke-width="10" stroke-linecap="round" stroke-miterlimit="10" d="M405.217,462.632
			c0,0,18.688,10.018,21.069,17.193"/>
	</g>
	<path fill="#054244" d="M767.33,437c-9.33,24-140,121.33-158,118s-54.66-86.67-67.69-125.33c-13.03-38.67,12.01-59.49,12.01-59.49
		s3.3,0.63,9.07,1.79c4.19,0.84,9.7,1.95,16.2,3.3c41.67,8.64,124.24,26.88,164.92,43.5c4.66,1.91,8.771,3.79,12.21,5.64
		C764.45,428.91,768.81,433.19,767.33,437z"/>
	<path fill="#B26106" d="M756.05,424.41c-10.31,13.28-26.18,26.71-41.64,42.15C687.82,493.12,626,535,609,533.54
		c-17-1.47-55-106.54-59-124.62c-2.71-12.24,6.49-28.02,12.72-36.95c4.19,0.84,9.7,1.95,16.2,3.3
		c41.67,8.64,124.24,26.88,164.92,43.5C748.5,420.68,752.61,422.56,756.05,424.41z"/>
	<path fill="#CC3D2E" d="M743.84,418.77C715.779,461.04,627.38,524.28,608.67,511c-20.67-14.67-48-88.67-44.65-112.67
		c1.68-11.99,8.5-19.03,14.9-23.06c5.63,1.16,12.46,1.6,20.11,1.67c27.77,0.28,66.21-4.25,95.84,3.72
		c16.021,4.3,26.239,18.45,36.25,28.58C735.26,413.44,739.37,416.95,743.84,418.77z"/>
	<polygon fill="#061728" points="656.139,400.877 709.973,403.105 677.597,382.333 	"/>
	<path fill="#CBC9B3" d="M743.84,418.77c-8.62,12.98-22.91,27.93-39.14,42.03c-36.63,31.86-83.06,59.4-96.03,50.2
		c-17.25-12.24-39.13-65.79-43.96-97.13c-0.96-6.22-1.24-11.57-0.69-15.54c1.68-11.99,8.5-19.03,14.9-23.06
		c5.63,1.16,12.46,1.6,20.11,1.67c14.59,25.25,56.29,78.12,132.09,32.3C735.26,413.44,739.37,416.95,743.84,418.77z"/>
	<path fill="#CBC9B3" d="M323.947,524.385c0,0-5.11,6.833-26.55,23.217c-13.276,10.149-36.624,39.673-64.906,68.714
		c-17.376,17.837-36.614,35.486-56.521,48.352c-52.323,33.811-99.586,32.474-107.437,11.872
		c-35.896-94.138,68.975-151.07,103.228-161.857c2.557-0.807,5.395-1.713,8.445-2.694c37.807-12.216,109.197-36.726,109.197-36.726
		L323.947,524.385z"/>
	<path fill="#061728" d="M369.73,472.81c0,0,20.902,12.863,27.333,3.751c6.432-9.111-13.398-15.007-15.542-20.366
		c-2.144-5.36,12.863-12.826,12.863-12.826s26.261-2.716,32.693,2.107c6.431,4.823,18.758,0.609,19.294-2.107
		c0.536-2.716-9.647-16.115-17.151-19.331c-7.503-3.216,13.936-6.431,25.19-5.36c11.255,1.072,25.726,11.255,30.013,9.111
		s3.751-11.254,0-15.006c-3.752-3.751-14.47-10.183-26.797-9.647C445.3,403.672,395.458,407.301,369.73,472.81z"/>
	<g>
		<g>
			<path fill="#F1513B" d="M767.064,306.427c0,0-0.92,34.06,0,44.187c0.919,10.125,0,15.648,0,15.648s-1.452,11.37-7.631,23.866
				c-6.178,12.495,5.329,40.571-55.887,14.336c-61.215-26.235-58.337-48.328-57.015-56.613c1.323-8.285-6.962-97.576,49.19-98.497
				C751.875,248.434,767.064,306.427,767.064,306.427z"/>
		</g>
		<polyline fill="none" stroke="#061728" stroke-width="2" stroke-miterlimit="10" points="762.071,342.29 769.5,368.213 
			759.431,367.17 		"/>
		<g>
			<path fill="#02665C" d="M781.79,305.97c-11.5-0.92-47.41,0-56.15,0c-8.749,0-33.6-3.22-33.6,16.11c0,0,19.79,34.52,11.97,47.4
				c-7.83,12.89-33.6,34.71-47.87,31.4c-14.27-3.32-65.36-36-64.44-48.89c0.92-12.88-0.01-9.29-0.01-9.29s-12.42-50.08,5.53-80.92
				c13.77-23.65,32.68-39.18,50.5-47.62c5.42-2.57,10.74-4.48,15.78-5.77c21.47-5.48,82.81-13.68,114.79,42.41
				c0.25,0.44,0.49,0.88,0.74,1.32c0,0,11.51,22.55,11.97,37.28S793.3,306.89,781.79,305.97z"/>
		</g>
		<path fill="#061728" d="M638.666,322.207c0,0,30.65,28.689,44.39,33.365s14.434-8.529,6.392-23.251s-32.273-42.923-32.273-42.923
			L638.666,322.207z"/>
		<g>
			<path fill="#F5F4E0" d="M609.883,349.117c0,0-9.817,6.903-6.462,11.046c3.356,4.143,30.971,24.855,30.971,24.855l8.63-5.682
				L609.883,349.117z"/>
		</g>
		<g>
			<path fill="#F5F4E0" d="M657.175,289.398l16.915,24.164l10.701-8.284l-15.879-21.057
				C668.912,284.22,660.627,280.078,657.175,289.398z"/>
		</g>
		<g>
			<path fill="#82B68E" d="M706.559,362c-0.001,0-0.002,0-0.002,0c-5.617,0-13.864-2.966-20.492-5.354
				c-2.543-0.917-4.739-1.705-6.133-2.083c-6.917-1.877-20.723-18.458-24.79-23.497l-2.039-2.524l25.629-24.098l18.419,19.835
				c0.209,0.279,5.173,6.924,9.714,14.205c7.556,12.116,9.224,18.106,5.944,21.385C711.393,361.288,709.289,362,706.559,362z
				 M662.648,329.177c7.336,8.781,16.152,17.829,19.118,18.633c1.667,0.453,3.987,1.281,6.673,2.25
				c5.792,2.088,13.726,4.94,18.118,4.94c0.001,0,0.001,0,0.002,0c0.325,0,0.584-0.01,0.787-0.033
				c-0.696-3.909-7.481-15.367-15.686-26.347l-13.26-14.256L662.648,329.177z"/>
		</g>
		<g>
			<path fill="#82B68E" d="M684.1,313.154l-6.503-2.59c0.253-0.635,6.332-15.56,18.218-15.633c9.519-0.059,70.94-1.767,71.56-1.784
				l0.195,6.997c-2.532,0.071-62.118,1.728-71.712,1.787C688.75,301.975,684.145,313.042,684.1,313.154z"/>
		</g>
		<g>
			<path fill="#82B68E" d="M796.456,416.954l-2.431-0.135c-2.075-0.115-51.022-2.978-67.588-16.302
				c-17.277-13.896-19.623-22.28-19.786-48.23c-0.157-25.199-1.862-53.36-1.88-53.642l6.987-0.427
				c0.017,0.283,1.733,28.637,1.893,54.025c0.157,25.067,2.565,31.07,17.173,42.82c6.019,4.84,18.849,8.93,37.104,11.827
				c10.381,1.647,19.791,2.46,24.063,2.776c2.865-6.613,11.131-25.798,13.068-31.462c2.142-6.257,1.308-15.903,1.3-16l6.971-0.631
				c0.042,0.455,0.981,11.216-1.647,18.896c-2.433,7.115-13.773,33.149-14.256,34.253L796.456,416.954z"/>
		</g>
		<g>
			<path fill="#82B68E" d="M801.063,368.213c-20.856,0-88.137-18.363-91.091-19.172l1.85-6.751
				c25.511,6.988,77.293,19.934,90.754,18.872c3.42-0.268,4.419-1.009,4.603-1.176c0.092-1.373-3.148-5.429-6.522-8.14l4.387-5.456
				c2.569,2.066,10.799,9.302,8.823,15.701c-1.093,3.541-4.707,5.577-10.743,6.05C802.5,368.189,801.811,368.213,801.063,368.213z"
				/>
		</g>
		<g>
			<path fill="#82B68E" d="M798.892,326.358l-3.131-6.261c0.622-0.315,2.479-1.416,3.561-2.631c-0.576-0.339-1.71-0.851-3.832-1.349
				c-5.012-1.177-21.843-0.948-27.908-0.759l-59.216,1.702l-0.201-6.997l59.208-1.702c2.316-0.073,22.908-0.659,29.719,0.942
				c5.239,1.232,8.17,3.108,9.222,5.906c0.726,1.929,0.385,4.028-0.961,5.911C803.183,324.155,799.324,326.142,798.892,326.358z"/>
		</g>
		<g>
			<path fill="#82B68E" d="M784.365,414.125c-0.322-0.803-7.87-19.845-5.694-35.278c2.054-14.544,2.547-17.715,2.566-17.843
				l6.916,1.081c-0.005,0.031-0.512,3.294-2.551,17.741c-1.912,13.564,5.188,31.514,5.26,31.694L784.365,414.125z"/>
		</g>
		<g>
			<rect x="784" y="314" fill="#82B68E" width="7" height="51"/>
		</g>
		<g>
			
				<rect x="775.499" y="334.053" transform="matrix(0.1422 0.9898 -0.9898 0.1422 1020.1149 -502.0633)" fill="#82B68E" width="48.476" height="7.001"/>
		</g>
		<g>
			
				<rect x="782.577" y="303.145" transform="matrix(0.0047 1 -1 0.0047 1090.5547 -482.433)" fill="#82B68E" width="10.12" height="7"/>
		</g>
		<g>
			<path fill="#007C9B" d="M725.869,343.594c0,0,14.969,3.107,17.15,5.523c2.183,2.417-0.926,12.082-3.342,12.427s-17.95,0-17.95,0
				S717.889,341.677,725.869,343.594z"/>
		</g>
		<g>
			<path fill="#B26106" d="M759.434,300.158c0,0,34.096,1.301,41.344,2.692c0,0,2.82-20.989-11.189-22.917
				C775.579,278.006,759.168,280.885,759.434,300.158z"/>
		</g>
		<path fill="none" stroke="#061728" stroke-width="2" stroke-miterlimit="10" d="M762.071,293.516c0,0,26.948-3.579,38.938,4.703"
			/>
		<path fill="none" stroke="#061728" stroke-width="2" stroke-miterlimit="10" d="M616.5,293.148c0,0,12.764,20.622,22.166,29.059"
			/>
		<path fill="none" stroke="#061728" stroke-width="2" stroke-miterlimit="10" d="M706.557,362c0,0,5.338,2.264,7.852-4.414"/>
		<line fill="none" stroke="#061728" stroke-width="2" stroke-miterlimit="10" x1="778.277" y1="365" x2="787.637" y2="367.067"/>
		
			<line fill="none" stroke="#061728" stroke-width="2" stroke-miterlimit="10" x1="806.686" y1="368.213" x2="813.866" y2="362.09"/>
		<line fill="none" stroke="#061728" stroke-width="2" stroke-miterlimit="10" x1="784" y1="314" x2="791" y2="314"/>
		
			<line fill="none" stroke="#061728" stroke-width="2" stroke-miterlimit="10" x1="720.961" y1="349.117" x2="743.298" y2="355.251"/>
		<circle fill="none" stroke="#061728" stroke-width="2" stroke-miterlimit="10" cx="617.52" cy="356.458" r="4.273"/>
		<circle fill="none" stroke="#061728" stroke-width="2" stroke-miterlimit="10" cx="632.383" cy="367.17" r="4.8"/>
		<path fill="none" stroke="#061728" stroke-width="2" stroke-miterlimit="10" d="M735.5,379.5c0,0,4.096,9.536,15.798,5.518"/>
		<path fill="none" stroke="#E2E0D3" stroke-width="2" stroke-miterlimit="10" d="M778.29,250.8c-9.11,5.26-26.99,0.2-26.99,0.2
			c-33.271-35.58-75.55-39.35-103.58-36.84"/>
		<path fill="#B26106" d="M638.666,219.03c0,0,7.138,29.173,27.986,42.571L637.183,287c0,0-26.017-10.313-33.1-37.657
			C604.083,249.343,618.315,224.499,638.666,219.03z"/>
		<path fill="#82B68E" d="M613.247,236.809c0,0,5.194,30.028,34.474,41.109c0,0-25.815-26.521-27.768-47.97
			C619.953,229.949,614.493,230.118,613.247,236.809z"/>
	</g>
	<path fill="#F1513B" d="M321.668,519.183c0,0-6.422,11.28-24.271,28.419c-12.054,11.574-36.624,39.673-64.906,68.714
		l-52.285-104.328c37.807-12.216,112.526-45.43,112.526-45.43L321.668,519.183z"/>
	<polyline fill="none" stroke="#061728" stroke-width="2" stroke-miterlimit="10" points="109.875,541.619 174.171,677.342 
		232.491,616.315 	"/>
	<polyline fill="none" stroke="#061728" stroke-width="2" stroke-miterlimit="10" points="196.195,543.892 143.45,572.319 
		147.649,583.006 206.578,551.797 	"/>
	<g>
		<path fill="#CBC9B3" d="M892,612c0,39.7-15.27,135.02-39.04,213.51C833.02,891.32,807.1,945.29,779.2,944.73
			c-19.681-0.4-47.33-12.181-76.271-28.561c-36.49-20.64-75.04-48.58-102.29-70.2c-18.37-14.58-31.6-26.29-35.61-30.97
			c-14.69-17.14-67.28-78.33-67.28-78.33l42.9-50.92c19.85,13.99,68.43,36.04,107.55,52.83c0.28,0.12,0.57,0.24,0.85,0.36
			c29.69,12.729,53.729,22.329,55.2,22.92l0.07,0.029c15.91-74.659,39.52-145.1,39.52-145.1c18.58-14.54,77.19-20.85,114.88-17.6
			C878.13,600.87,892,605.07,892,612z"/>
		<pattern  id="SVGID_3_" xlink:href="#_x31_0_dpi_20_x25_" patternTransform="matrix(1 0 0 1 23 0)">
		</pattern>
		<path fill="url(#SVGID_3_)" d="M918.31,583.78c0,0-0.18,15.87-9.1,17.58C901.57,613.88,892,612,892,612
			c0,39.7-15.27,135.02-39.04,213.51c5.67-109.67-4.41-222.229-4.41-222.229l0.021-0.011l10.149-4.079l13.761-5.53l17.17-6.9
			l18.54-7.45C911.57,580.65,914.94,582.13,918.31,583.78z"/>
		<path fill="#F1513B" d="M540.65,685.75l-42.9,50.92c0,0-24.76-24.75-33.12-38.85c-0.57-0.95-1.06-1.86-1.46-2.71
			c-6.35-13.32-20.94-35.53-16.5-52.03c4.44-16.49-7.61-16.49-14.59-22.2s-21.58-4.06-19.67-12.5c1.9-8.439,10.15-5.52,23.47,0
			c13.33,5.521,27.92,7.42,27.92,7.42s-3.03-15.229-8.81-22.84c-5.78-7.61-29.26-28.55-24.82-35.53
			c4.44-6.979,12.69-0.64,17.77,3.17c5.07,3.811,18.4,17.551,18.4,17.551l6.34,3.39l5.08-0.64c0,0-7.62-20.21-12.69-26.601
			c-5.08-6.39-20.94-23.52-16.5-29.229s16.5,7.609,16.5,7.609s15.23,8.891,17.13,11.42c1.54,2.061,1.83,2.45,1.89,2.521
			c-0.07-0.65-1.93-15.67-3.79-22.97c-1.91-7.46-3.18-20.4,1.9-20.28c5.08,0.13,13.33,17.89,15.55,24.87
			c2.22,6.979,6.66,21.58,6.02,31.729c-0.63,10.15,3.81,40.351,5.08,48.41c1.27,8.061,0,44.54,0,44.54l0.95,0.98L540.65,685.75z"/>
		<path fill="#F1513B" d="M540.65,685.75l-42.9,50.92c0,0-24.76-24.75-33.12-38.85l45.17-43.92L540.65,685.75z"/>
		<path fill="#F1513B" d="M649.05,738.94L600.64,845.97c-18.37-14.58-31.6-26.29-35.61-30.97c-14.69-17.14-67.28-78.33-67.28-78.33
			l42.9-50.92C560.64,699.84,609.79,722.11,649.05,738.94z"/>
		<polygon fill="#D6D4C5" points="600.64,845.97 700,926.286 729,826.07 704.32,761.89 649.05,736.67 		"/>
		<polyline fill="none" stroke="#061728" stroke-width="2" stroke-miterlimit="10" points="617.382,808.169 723,878 729,864 
			623.55,794.243 		"/>
		<path fill="#054244" d="M918.31,583.78c0,0-0.18,15.87-9.1,17.58c-0.37,0.069-0.76,0.12-1.16,0.14
			c-3.649,0.18-16.29-4.46-35.569-7.84c-33.721-5.92-87.75-7.99-149.471,26.35c0.02-0.01,0.03-0.029,0.051-0.04
			c0.029-0.02,0.069-0.06,0.109-0.1c1.22-1.01,8.78-7.17,20.97-14.87c32.48-20.52,97.9-51.94,164.051-25.69
			C911.57,580.65,914.94,582.13,918.31,583.78z"/>
		<path fill="#B26106" d="M910.87,598.36c-0.54,1.08-1.09,2.08-1.66,3C901.57,613.88,892,612,892,612
			c-13.39-5.22-28.33-7.82-43.43-8.73c-51.44-3.09-104.73,13.521-104.73,13.521L723,620.02l0.01-0.01
			c0.02-0.01,0.03-0.029,0.051-0.04c0.039-0.04,0.069-0.069,0.109-0.1c6.18-5.73,13.26-10.66,20.97-14.87
			c45.08-24.67,111.63-25.05,145.511-18.24C904.43,589.74,912.99,594.07,910.87,598.36z"/>
		<path fill="none" stroke="#061728" stroke-width="2" stroke-miterlimit="10" d="M484.09,546.62c0,0,14.026,22.408,18.55,36.359"/>
		
			<line fill="none" stroke="#061728" stroke-width="2" stroke-miterlimit="10" x1="505.999" y1="666.333" x2="508.954" y2="649.675"/>
		<path fill="none" stroke="#061728" stroke-width="2" stroke-miterlimit="10" d="M447.295,633.675c0,0,4.038,8.675,5.371,16"/>
	</g>
	<g>
		<line fill="none" stroke="#E2E0D3" stroke-width="2" stroke-miterlimit="10" x1="362" y1="473.667" x2="376.241" y2="476.199"/>
		
			<line fill="none" stroke="#E2E0D3" stroke-width="2" stroke-miterlimit="10" x1="386.379" y1="462.632" x2="376.241" y2="452.774"/>
		<path fill="none" stroke="#E2E0D3" stroke-width="2" stroke-miterlimit="10" d="M384.951,444.034c0,0,19.83-4.226,27.098-2.569"/>
		<path fill="none" stroke="#E2E0D3" stroke-width="2" stroke-miterlimit="10" d="M386.379,427.465c0,0,28.509-7.998,46.065-1.564"
			/>
		<line fill="none" stroke="#E2E0D3" stroke-width="2" stroke-miterlimit="10" x1="453" y1="419" x2="432" y2="419"/>
		
			<line fill="none" stroke="#E2E0D3" stroke-width="2" stroke-miterlimit="10" x1="481.38" y1="410.292" x2="447.295" y2="399.913"/>
		<polyline fill="none" stroke="#E2E0D3" stroke-width="2" stroke-miterlimit="10" points="315.246,459.595 325.334,479.825 
			340.545,476.199 330.318,453.32 		"/>
		
			<line fill="none" stroke="#E2E0D3" stroke-width="2" stroke-miterlimit="10" x1="298.657" y1="464.802" x2="327.369" y2="512.798"/>
	</g>
	<path fill="#82B68E" d="M704.7,460.8c-36.63,31.86-83.06,59.4-96.03,50.2c-17.25-12.24-39.13-65.79-43.96-97.13
		C582.55,434.83,625.54,470.96,704.7,460.8z"/>
	<path fill="none" stroke="#061728" stroke-width="2" stroke-miterlimit="10" d="M567.679,428.15c0,0,26.14,47.05,121.768,43.079"/>
	<polygon fill="#007C9B" points="616.5,444.034 611.764,452.774 643.022,462.632 647.72,452.774 	"/>
	<line fill="none" stroke="#061728" stroke-width="2" stroke-miterlimit="10" x1="609.33" y1="555" x2="602.722" y2="583.231"/>
	<path fill="none" stroke="#061728" stroke-width="2" stroke-miterlimit="10" d="M762.071,485c0,0,17.82-26.343,55.874-29.838"/>
	<g>
		<defs>
			<path id="SVGID_4_" d="M758,612c0,0,80-16,118-5s47-25,48-63s-34.109-80.677-106.055-88.838S758,612,758,612z"/>
		</defs>
		<clipPath id="SVGID_5_">
			<use xlink:href="#SVGID_4_"  overflow="visible"/>
		</clipPath>
		<g clip-path="url(#SVGID_5_)">
			<path fill="#B26106" d="M915.698,506.449c-2.897,4.83-6.992,8.33-12.171,10.406c-5.217,2.172-11.061,2.166-17.181,0.09
				l-3.802-1.312l8.599-14.807l2.26,0.395c3.233,0.508,5.483-0.545,7.23-3.545c3.058-5.406,0.075-8.37-3.778-10.607l-2.561-1.488
				c-1.013,3.517-2.425,6.845-4.092,9.714c-0.092,0.158-0.175,0.299-0.27,0.455c-0.046,0.082-0.088,0.156-0.135,0.238
				c-2.811,4.838-7.024,7.986-12.529,9.365c-5.506,1.451-12.025,0.291-18.971-4.15l-6.101-3.545
				c-6.935-4.025-11.051-9.481-12.378-16.033c-1.409-6.191-0.487-12.148,2.739-17.703c3.319-5.716,8.162-9.659,14.266-11.495
				c6.214-1.895,12.869-0.832,19.944,2.866l29.446,17.101c6.688,4.294,10.896,9.541,12.331,15.888
				c1.423,6.185,0.47,12.294-2.773,18.039l-0.037,0.066L915.698,506.449z M866.764,486.418c6.473,3.76,9.194,1.235,11.092-1.942
				c3.055-5.417,0.045-8.417-3.797-10.648l-5.365-3.115c-6.407-3.721-9.2-1.167-11.13,1.979c-3.001,5.483,0.015,8.394,3.81,10.596
				L866.764,486.418z"/>
			<path fill="#D6D4C5" d="M853.809,494.887c-6.103-3.621-9.719-8.265-10.854-13.935c-1.241-5.413-0.45-10.553,2.376-15.421
				c2.911-5.012,7.029-8.321,12.352-9.923c5.39-1.643,11.188-0.737,17.402,2.712l29.339,17.038c6.046,3.669,9.69,8.25,10.933,13.744
				c1.248,5.417,0.445,10.652-2.404,15.699c-2.546,4.242-6.091,7.271-10.638,9.088c-4.502,1.881-9.45,1.906-14.844,0.078
				l5.533-9.525c4.566,0.717,8.057-1.01,10.476-5.174c3.354-5.912,1.706-10.917-4.939-15.013l-6.266-3.639
				c-1.125,5.23-2.827,9.733-5.099,13.508c-2.374,4.229-5.942,6.936-10.702,8.121c-4.668,1.24-10.182-0.025-16.538-3.799
				L853.809,494.887z M865.191,489.184c6.806,3.794,11.959,2.748,15.46-3.141c3.36-5.928,1.724-10.938-4.909-15.028l-5.44-3.16
				c-6.779-3.699-11.94-2.637-15.485,3.184c-3.316,5.996-1.673,10.99,4.934,14.984L865.191,489.184z"/>
		</g>
	</g>
	<g>
		<defs>
			<path id="SVGID_6_" d="M510.893,356.325c0,0-51.467-56.219-135.893-24.325c-90,34-71,97-11.053,122.869
				C435.188,485.61,510.893,356.325,510.893,356.325z"/>
		</defs>
		<clipPath id="SVGID_7_">
			<use xlink:href="#SVGID_6_"  overflow="visible"/>
		</clipPath>
		<g clip-path="url(#SVGID_7_)">
			<path fill="#B26106" d="M373.718,325.033c0.253-5.626,2.19-10.653,5.76-14.941c3.557-4.391,8.7-7.165,15.071-8.248l3.969-0.653
				l-0.524,17.114l-2.176,0.728c-3.086,1.091-4.564,3.086-4.675,6.557c-0.119,6.21,3.913,7.398,8.367,7.534l2.96,0.092
				c-0.781-3.575-1.121-7.174-1.02-10.491c0.006-0.183,0.012-0.346,0.021-0.528c0.002-0.094,0.004-0.18,0.006-0.274
				c0.172-5.592,2.382-10.366,6.569-14.196c4.153-3.895,10.44-5.974,18.662-5.369l7.053,0.218
				c8.015,0.244,14.229,3.086,18.513,8.219c4.183,4.776,6.204,10.455,6.007,16.876c-0.202,6.606-2.588,12.378-7.084,16.896
				c-4.565,4.621-10.926,6.851-18.908,6.962l-34.035-1.043c-7.927-0.598-14.122-3.213-18.402-8.113
				c-4.192-4.765-6.259-10.592-6.138-17.188l0.002-0.076L373.718,325.033z M426.291,319.387c-7.481-0.229-8.676,3.285-8.834,6.983
				c-0.111,6.219,3.963,7.426,8.403,7.562l6.201,0.188c7.406,0.228,8.648-3.348,8.851-7.032c0.033-6.25-4.004-7.377-8.39-7.51
				L426.291,319.387z"/>
			<path fill="#D6D4C5" d="M433.662,305.777c7.09,0.284,12.479,2.65,16.175,7.098c3.665,4.171,5.413,9.07,5.242,14.696
				c-0.178,5.793-2.228,10.662-6.147,14.603c-3.961,4.007-9.493,5.968-16.6,5.888l-33.911-1.038
				c-7.063-0.354-12.447-2.65-16.153-6.894c-3.674-4.172-5.456-9.159-5.349-14.954c0.223-4.942,1.9-9.293,5.037-13.053
				c3.065-3.795,7.407-6.17,13.021-7.126l-0.338,11.01c-4.358,1.541-6.607,4.719-6.756,9.533
				c-0.139,6.796,3.689,10.415,11.484,10.858l7.242,0.223c-1.497-5.136-2.141-9.907-1.938-14.308
				c0.078-4.849,1.93-8.927,5.554-12.233c3.517-3.311,8.969-4.819,16.354-4.521L433.662,305.777z M426.359,316.207
				c-7.791-0.102-11.827,3.269-12.107,10.114c-0.138,6.812,3.685,10.442,11.465,10.886l6.288,0.193
				c7.723,0.03,11.759-3.358,12.109-10.165c0.066-6.852-3.754-10.463-11.465-10.836L426.359,316.207z"/>
		</g>
	</g>
	<g>
		<g>
			<path fill="none" stroke="#061728" stroke-width="2" stroke-miterlimit="10" d="M408.029,834.793
				c-0.013-0.122,0.014-0.221,0.086-0.299c0.054-0.059,0.1-0.099,0.138-0.118c4.965-2.462,7.386-3.76,12.097-6.474
				c0.348-0.209,0.683-0.188,1.002,0.064c0.994,0.786,1.494,1.177,2.502,1.95c0.323,0.247,0.421,0.563,0.292,0.944
				c-1.637,5.113-2.444,7.674-4.037,12.803c-0.014,0.039-0.046,0.09-0.097,0.151c-0.067,0.082-0.165,0.128-0.295,0.14
				s-0.242-0.016-0.335-0.084c-0.906-0.666-1.357-1.005-2.253-1.68c-0.277-0.208-0.376-0.468-0.302-0.776
				c0.249-0.776,0.374-1.161,0.624-1.937c-1.779-1.357-2.659-2.046-4.396-3.44c-0.746,0.386-1.12,0.576-1.871,0.956
				c-0.305,0.127-0.592,0.081-0.857-0.135c-0.865-0.704-1.294-1.06-2.148-1.772C408.091,835.014,408.042,834.915,408.029,834.793z
				 M415.696,834.349c1.172,0.932,1.764,1.394,2.955,2.308c0.697-2.009,1.047-3.011,1.75-5.018
				C418.539,832.742,417.598,833.283,415.696,834.349z"/>
			<path fill="none" stroke="#061728" stroke-width="2" stroke-miterlimit="10" d="M426.643,848.811
				c-0.029-0.14-0.004-0.264,0.077-0.368c3.136-4.101,4.667-6.17,7.654-10.35c0.084-0.118,0.197-0.184,0.336-0.201
				c0.139-0.019,0.265,0.01,0.38,0.086c0.959,0.643,1.44,0.963,2.41,1.595c0.128,0.083,0.204,0.188,0.232,0.317
				c0.028,0.129,0.003,0.252-0.079,0.371c-2.328,3.368-3.517,5.041-5.939,8.361c2.17,1.414,3.268,2.107,5.488,3.467
				c0.135,0.082,0.221,0.194,0.258,0.332c0.037,0.139,0.013,0.268-0.07,0.388c-0.479,0.692-0.718,1.039-1.201,1.729
				c-0.083,0.119-0.2,0.188-0.347,0.207c-0.146,0.019-0.289-0.012-0.425-0.096c-3.481-2.136-5.192-3.241-8.549-5.509
				C426.748,849.06,426.672,848.951,426.643,848.811z"/>
			<path fill="none" stroke="#061728" stroke-width="2" stroke-miterlimit="10" d="M443.435,859.179
				c-0.042-0.137-0.028-0.259,0.044-0.37c2.823-4.331,4.196-6.516,6.866-10.914c0.076-0.124,0.184-0.201,0.323-0.229
				c0.14-0.028,0.27-0.008,0.392,0.061c1.028,0.569,1.544,0.852,2.583,1.408c0.136,0.072,0.223,0.173,0.263,0.299
				c0.041,0.125,0.024,0.252-0.049,0.377c-2.073,3.54-3.133,5.3-5.304,8.799c2.319,1.246,3.49,1.854,5.857,3.042
				c0.144,0.072,0.243,0.176,0.292,0.311c0.049,0.135,0.035,0.267-0.039,0.393c-0.426,0.728-0.639,1.09-1.069,1.816
				c-0.075,0.126-0.185,0.204-0.333,0.233c-0.147,0.029-0.295,0.007-0.441-0.066c-3.71-1.865-5.538-2.836-9.131-4.844
				C443.56,859.421,443.477,859.315,443.435,859.179z"/>
			<path fill="none" stroke="#061728" stroke-width="2" stroke-miterlimit="10" d="M473.505,873.154
				c-0.797-0.709-1.3-1.438-1.518-2.18c-0.218-0.744-0.186-1.461,0.111-2.098c0.049-0.106,0.141-0.177,0.265-0.212
				c0.126-0.035,0.25-0.032,0.376,0.02c1.104,0.443,1.658,0.661,2.771,1.092c0.166,0.065,0.292,0.144,0.374,0.231
				s0.187,0.231,0.227,0.385c0.08,0.303,0.216,0.702,0.515,1.035c0.299,0.333,0.775,0.625,1.425,0.866
				c0.764,0.284,1.398,0.396,1.9,0.346c0.502-0.05,0.832-0.251,0.991-0.602c0.115-0.255,0.104-0.503-0.035-0.743
				c-0.138-0.24-0.412-0.508-0.818-0.805c-0.406-0.296-1.009-0.688-1.8-1.162c-1.542-0.926-2.602-1.852-3.146-2.764
				c-0.546-0.912-0.553-1.91-0.038-3c0.351-0.742,0.897-1.317,1.63-1.716c0.734-0.398,1.601-0.594,2.604-0.591
				c1.003,0.003,2.069,0.217,3.209,0.637c1.193,0.439,2.157,0.995,2.885,1.678c0.729,0.684,1.22,1.387,1.468,2.106
				c0.247,0.718,0.285,1.375,0.08,1.904c-0.042,0.107-0.127,0.188-0.245,0.239c-0.117,0.051-0.238,0.056-0.364,0.013
				c-1.175-0.4-1.761-0.604-2.927-1.019c-0.306-0.109-0.546-0.345-0.564-0.582c-0.018-0.235-0.093-0.579-0.361-0.88
				c-0.267-0.301-0.656-0.545-1.163-0.731c-0.577-0.214-1.063-0.286-1.458-0.224c-0.396,0.062-0.672,0.268-0.832,0.617
				c-0.159,0.35-0.077,0.702,0.246,1.057c0.323,0.354,1.008,0.866,2.053,1.468c1.194,0.688,2.148,1.312,2.794,1.895
				c0.645,0.582,1.054,1.182,1.217,1.805s0.087,1.311-0.239,2.066c-0.358,0.831-0.948,1.461-1.779,1.876
				c-0.83,0.415-1.817,0.607-2.957,0.575c-1.138-0.032-2.35-0.282-3.621-0.756C475.395,874.485,474.302,873.863,473.505,873.154z"/>
			<path fill="none" stroke="#061728" stroke-width="2" stroke-miterlimit="10" d="M495.662,880.827
				c-0.078-0.118-0.089-0.246-0.036-0.383c1.486-3.815,2.204-5.728,3.589-9.563c-1.519-0.425-2.275-0.643-3.781-1.091
				c-0.157-0.047-0.273-0.131-0.347-0.25c-0.074-0.119-0.084-0.247-0.033-0.385c0.315-0.833,0.472-1.249,0.783-2.084
				c0.051-0.137,0.147-0.236,0.287-0.297c0.14-0.062,0.287-0.07,0.442-0.024c4.592,1.36,6.92,1.984,11.636,3.12
				c0.158,0.039,0.277,0.122,0.356,0.242c0.078,0.12,0.095,0.248,0.051,0.388c-0.271,0.851-0.406,1.275-0.682,2.125
				c-0.045,0.139-0.136,0.241-0.274,0.303c-0.139,0.062-0.289,0.073-0.449,0.034c-1.546-0.375-2.316-0.566-3.85-0.965
				c-1.326,3.859-2.013,5.782-3.44,9.622c-0.051,0.138-0.15,0.236-0.295,0.294c-0.146,0.059-0.303,0.062-0.47,0.019
				c-1.254-0.336-1.878-0.507-3.124-0.857C495.862,881.028,495.74,880.946,495.662,880.827z"/>
			<path fill="none" stroke="#061728" stroke-width="2" stroke-miterlimit="10" d="M510.411,884.53
				c-0.074-0.104-0.094-0.205-0.06-0.306c0.025-0.076,0.051-0.134,0.079-0.168c3.751-4.409,5.549-6.648,8.978-11.186
				c0.25-0.343,0.597-0.475,1.043-0.391c1.389,0.257,2.085,0.381,3.483,0.618c0.448,0.076,0.699,0.315,0.754,0.714
				c0.836,5.307,1.266,7.958,2.147,13.26c0.005,0.041-0.003,0.099-0.023,0.177c-0.028,0.103-0.104,0.189-0.228,0.258
				c-0.126,0.069-0.251,0.094-0.378,0.074c-1.234-0.188-1.85-0.285-3.077-0.487c-0.379-0.062-0.606-0.249-0.682-0.559
				c-0.127-0.805-0.19-1.205-0.316-2.011c-2.447-0.417-3.665-0.64-6.086-1.114c-0.559,0.678-0.841,1.017-1.407,1.691
				c-0.243,0.249-0.551,0.334-0.922,0.259c-1.208-0.246-1.812-0.372-3.013-0.633C510.58,884.701,510.483,884.634,510.411,884.53z
				 M517.871,880.72c1.632,0.311,2.449,0.459,4.093,0.743c-0.276-2.109-0.412-3.164-0.682-5.273
				C519.942,878.011,519.26,878.917,517.871,880.72z"/>
			<path fill="none" stroke="#061728" stroke-width="2" stroke-miterlimit="10" d="M535.91,888.714
				c-0.097-0.111-0.131-0.231-0.1-0.362c1.19-5.078,1.744-7.621,2.77-12.707c0.029-0.144,0.107-0.255,0.234-0.342
				c0.127-0.086,0.277-0.124,0.445-0.105c2.53,0.263,3.8,0.38,6.354,0.577c2.044,0.159,3.585,0.651,4.625,1.511
				c1.037,0.858,1.451,2.001,1.216,3.438c-0.151,0.924-0.54,1.695-1.169,2.312c-0.631,0.617-1.436,1.077-2.415,1.371
				c0.945,2.014,1.423,3.019,2.393,5.024c0.034,0.082,0.045,0.156,0.033,0.222c-0.019,0.104-0.086,0.198-0.2,0.278
				c-0.115,0.081-0.246,0.118-0.394,0.109c-1.385-0.08-2.076-0.128-3.454-0.227c-0.472-0.033-0.769-0.237-0.893-0.606
				c-0.728-1.792-1.087-2.688-1.799-4.485c-0.919-0.076-1.378-0.117-2.295-0.202c-0.357,1.721-0.54,2.585-0.916,4.305
				c-0.032,0.145-0.121,0.255-0.26,0.334c-0.141,0.079-0.3,0.112-0.478,0.095c-1.327-0.13-1.99-0.199-3.311-0.346
				C536.136,888.89,536.007,888.825,535.91,888.714z M544.478,881.859c0.679,0.055,1.225-0.051,1.633-0.307
				c0.407-0.257,0.656-0.631,0.746-1.131c0.09-0.501-0.016-0.916-0.314-1.245c-0.299-0.327-0.787-0.514-1.459-0.567
				c-1.042-0.082-1.561-0.127-2.598-0.22c-0.249,1.298-0.377,1.946-0.636,3.243C542.897,881.729,543.425,881.774,544.478,881.859z"
				/>
		</g>
	</g>
	<path fill="none" stroke="#061728" stroke-width="2" stroke-miterlimit="10" d="M390.339,666.333c0,0-0.66,109.339-40.943,169.788"
		/>
</g>
</svg>
